<!-- Generated by IcoMoon.io -->
<svg version="1.1" xmlns="http://www.w3.org/2000/svg" width="512" height="512" viewBox="0 0 512 512">
<title>external-link</title>
<path d="M402.286 265.143v91.428c0 45.428-36.857 82.286-82.286 82.286h-237.714c-45.428 0-82.285-36.857-82.285-82.286v-237.714c0-45.428 36.857-82.285 82.285-82.285h201.143c5.143 0 9.143 4 9.143 9.143v18.285c0 5.143-4 9.143-9.143 9.143h-201.143c-25.143 0-45.715 20.572-45.715 45.715v237.714c0 25.143 20.572 45.714 45.715 45.714h237.715c25.143 0 45.714-20.572 45.714-45.714v-91.428c0-5.143 4-9.143 9.143-9.143h18.286c5.143 0 9.143 4 9.143 9.143zM512 18.285v146.286c0 10-8.286 18.286-18.286 18.286-4.857 0-9.428-2-12.857-5.428l-50.286-50.285-186.286 186.286c-1.714 1.714-4.286 2.857-6.572 2.857s-4.857-1.143-6.572-2.857l-32.572-32.572c-1.714-1.714-2.857-4.286-2.857-6.572s1.143-4.857 2.857-6.572l186.286-186.286-50.286-50.285c-3.428-3.428-5.428-8-5.428-12.857 0-10 8.286-18.285 18.286-18.285h146.286c10 0 18.286 8.286 18.286 18.285z"></path>
</svg>
