<!-- Generated by IcoMoon.io -->
<svg version="1.1" xmlns="http://www.w3.org/2000/svg" width="512" height="512" viewBox="0 0 512 512">
<title>close</title>
<path d="M75.008 436.992c-48.218-46.617-78.154-111.881-78.154-184.138 0-141.385 114.615-256 256-256 72.257 0 137.522 29.936 184.069 78.082l0.069 0.072c44.462 45.989 71.862 108.718 71.862 177.846 0 141.385-114.615 256-256 256-69.128 0-131.857-27.399-177.918-71.932l0.072 0.069zM291.84 256l72.448-72.448-36.096-36.096-72.192 72.448-72.448-72.448-36.096 36.096 72.448 72.448-72.448 72.448 36.096 36.096 72.448-72.448 72.448 72.448 36.096-36.096-72.448-72.448z"></path>
</svg>
