<?xml version="1.0" encoding="UTF-8"?>
<svg xmlns="http://www.w3.org/2000/svg" viewBox="0 0 1200 800" role="img" aria-labelledby="title">
  <title id="title">Centra</title>
  <rect width="1200" height="800" fill="#000"/>
  <!-- Official Centra wordmark from the Centra press kit. -->
  <g fill="#fff" transform="translate(250 289.31) scale(2.29433)">
    <circle cx="10.4" cy="86.1" r="10.4"/>
    <path d="m44.8 68c6.9 0 12.2-4.6 14.1-9.2l9 5.8c-4.6 8.1-12.8 13.8-23.7 13.8-14.5 0-27.7-11.5-27.7-28.3s13.2-28.3 27.7-28.3c11 0 19.1 5.8 23.6 13.9l-9 5.8c-1.8-4.6-7-9.2-14-9.2-11 0-17 8.1-17 17.9s6 17.8 17 17.8Z"/>
    <path d="M81.1 53c0 8.1 5.8 15 15.6 15 6.9 0 11.7-3.5 13.4-8.1l9.7 4.6c-4.6 8.1-12.7 13.9-23.7 13.9-14.4 0-26.6-11.5-26.6-28.3s11.5-28.3 26.6-28.3c13.9 0 25.4 11 25.4 27.7l-1.2 3.5H81.1Zm.6-10.1h27.7c-.6-6-6.4-10.6-13.3-10.6-8.1 0-12.7 4.6-14.4 10.6Z"/>
    <path d="M127.9 23h10.4l1.2 4.6.6.6.6-.6c2.3-3.5 8.1-5.8 12.7-5.8 13.9 0 21.9 9.2 21.9 21.9v33.5h-11.5V43.8c-.3-7.4-3.9-11.5-11.5-11.5-6.8 0-12.5 5.5-12.7 12.2v32.8h-11.5V23h-.2Z"/>
    <path d="M178.1 23h10.5V11.5L197.7 0h2.2v23.1h11.7v10.3h-11.7v27.7c0 3.5 2.4 5.8 5.9 5.8l6.9-1.2v10.4l-6.4 1.2c-11.5 0-17.8-5.8-17.8-16.2V33.4H178V23h.1Z"/>
    <path d="M219.7 23h10.4l1.2 5.8.6.6.6-.6c3.5-4.6 8.1-6.9 12.7-6.9 2.3 0 3.5 0 5.8 1.2v10.3h-6.9c-6.8 0-12.5 5.5-12.7 12.2v31.6h-11.5V23h-.2Z"/>
    <path d="M305.1 77.3h-10.4l-1.2-4.6-.6-.6-.6.6c-3.5 3.5-9.2 5.8-15 5.8-15 0-27.7-11.5-27.7-28.3s12.7-28.3 27.7-28.3c5.8 0 11.5 2.3 15 5.8l.6.6.6-.6 1.2-4.6h10.4v54.2ZM278 32.3c-11 0-16.9 8.1-16.9 17.9s5.9 17.9 16.9 17.9c9.8 0 16.7-8.1 16.7-17.9 0-9.9-6.9-17.9-16.7-17.9Z"/>
  </g>
</svg>
