<svg width="193px" height="32px" id="Layer_1" xmlns="http://www.w3.org/2000/svg" viewBox="0 0 193.3 32"><style>.st2{fill:#fff}.st7{fill:#ffe4e4}</style><linearGradient id="SVGID_1_" gradientUnits="userSpaceOnUse" x1="-6.335" y1="-2.304" x2="198.174" y2="34.047"><stop offset="0" stop-color="#ff7155"/><stop offset="1" stop-color="#ff6142"/></linearGradient><path d="M189.1 0H4.2C1.9 0 0 1.9 0 4.2v23.6C0 30.1 1.9 32 4.2 32H189c2.3 0 4.2-1.9 4.2-4.2V4.2c.1-2.3-1.8-4.2-4.1-4.2z" fill="url(#SVGID_1_)"/><path class="st2" d="M43.6 11.1c2.6 0 4 1.6 4 3.9v2c0 2.2-1.4 3.9-4 3.9h-4v-9.8h4zm2.1 3.8c0-1.4-.8-2.2-2.4-2.2h-1.7v6.6h1.7c1.6 0 2.4-.8 2.4-2.2v-2.2zM49.1 17.8v-1c0-2 1.2-3.4 3.4-3.4s3.2 1.4 3.2 3.2v1.3H51v.2c0 .9.4 1.6 1.5 1.6.8 0 1.3-.4 1.5-.9h1.7c-.3 1.3-1.6 2.3-3.2 2.3-2-.1-3.4-1.3-3.4-3.3zm1.9-1.3h3v-.2c0-.9-.5-1.6-1.5-1.6-1.1.1-1.5.8-1.5 1.8zM64.4 16.6v1.2c0 1.8-1.1 3.2-3.1 3.2-1 0-1.7-.4-2.1-1v3.2h-1.9v-9.7h1.8v.9c.4-.6 1.1-1 2.2-1 2 0 3.1 1.5 3.1 3.2zm-5.2.1v1.1c0 1.1.7 1.7 1.6 1.7 1.1 0 1.6-.7 1.6-1.8v-1c0-1-.5-1.8-1.6-1.8-.9.1-1.6.8-1.6 1.8zM66 10.6h1.9v10.2H66V10.6zM69.5 17.8v-1c0-1.9 1.2-3.3 3.4-3.3s3.4 1.4 3.4 3.3v1c0 1.9-1.2 3.3-3.4 3.3s-3.4-1.5-3.4-3.3zm5-1.2c0-1-.5-1.7-1.6-1.7s-1.6.7-1.6 1.7v1.3c0 1 .5 1.7 1.6 1.7s1.6-.7 1.6-1.7v-1.3zM78.8 23.3l.7-2.5-2.5-7.2h1.9l1.6 5.2 1.5-5.2h1.9l-3.2 9.7h-1.9z"/><path class="st7" d="M96.4 20.9h-1.8l-1.6-5-1.6 5h-1.8l-1.9-7.3h1.8l1.1 4.9 1.5-4.9h1.7l1.5 4.9 1.1-4.9h1.8l-1.8 7.3zM100.6 10.6c.6 0 1.1.5 1.1 1.1s-.5 1.1-1.1 1.1c-.6 0-1.1-.5-1.1-1.1s.4-1.1 1.1-1.1zm-1 3h1.9v7.3h-1.9v-7.3zM103.9 18.8v-3.7h-1v-1.5h1v-2h1.9v2h1.6v1.5h-1.6v3.5c0 .5.2.7.7.7h.8v1.5H106c-1.4.1-2.1-.7-2.1-2zM108.8 10.6h1.9v3.8c.4-.6 1.1-1 2.1-1 1.6 0 2.6 1.1 2.6 2.8v4.7h-1.9v-4.4c0-.8-.4-1.4-1.3-1.4s-1.4.5-1.4 1.5v4.3h-1.9V10.6zM124.8 11.1c2.6 0 4 1.6 4 3.9v2c0 2.2-1.4 3.9-4 3.9h-4v-9.8h4zm2 3.8c0-1.4-.8-2.2-2.4-2.2h-1.7v6.6h1.7c1.6 0 2.4-.8 2.4-2.2v-2.2zM130.2 18.8c0-1.6 1.2-2.3 2.9-2.3.9 0 1.5.3 1.8.6v-1c0-.7-.5-1.2-1.3-1.2-.7 0-1.1.3-1.3.7h-1.8c.4-1.4 1.6-2.2 3.1-2.2 1.8 0 3.1 1.1 3.1 2.8v4.7H135v-.7c-.3.5-1.3.8-2.1.8-1.6 0-2.7-.8-2.7-2.2zm4.8-.1c0-.6-.6-1-1.5-1s-1.5.4-1.5 1 .6 1.1 1.4 1.1c.9 0 1.6-.5 1.6-1.1zM139.1 18.8v-3.7h-1v-1.5h1v-2h1.9v2h1.6v1.5H141v3.5c0 .5.2.7.7.7h.8v1.5h-1.3c-1.4.1-2.1-.7-2.1-2zM143.7 17.8v-1c0-1.9 1.2-3.3 3.4-3.3s3.4 1.4 3.4 3.3v1c0 1.9-1.2 3.3-3.4 3.3-2.2-.1-3.4-1.5-3.4-3.3zm5-1.2c0-1-.5-1.7-1.6-1.7s-1.6.7-1.6 1.7v1.3c0 1 .5 1.7 1.6 1.7s1.6-.7 1.6-1.7v-1.3zM152 16.7v-1.4c0-2.5 1.3-4.4 4.3-4.4 2.5 0 4 1.7 4.1 3.7h-1.8c-.1-1.1-.8-2.1-2.3-2.1-1.6 0-2.3 1.1-2.3 2.7v1.6c0 1.6.7 2.7 2.3 2.7 1.5 0 2.2-1 2.3-2.1h1.8c-.1 2-1.6 3.7-4.1 3.7-2.9 0-4.3-1.9-4.3-4.4zM171.4 20.9h-1.9v-6l-1.8 3.6H166l-1.8-3.6v6h-1.9v-9.8h1.8l2.8 5.6 2.8-5.6h1.8v9.8zM173.3 18v-.3h1.9v.3c0 .9.7 1.6 2 1.6 1.2 0 1.9-.5 1.9-1.4 0-.5-.3-.9-.9-1.1l-2.6-.7c-1.5-.4-2.2-1.1-2.2-2.5 0-1.8 1.4-3 3.6-3s3.5 1.2 3.5 2.9v.2h-1.8v-.2c0-.8-.5-1.5-1.7-1.5-1 0-1.7.4-1.7 1.3 0 .6.3.9.8 1l2.7.7c1.4.4 2.1 1.2 2.1 2.6 0 1.9-1.7 3.1-3.9 3.1-2.2.1-3.7-1-3.7-3z"/><linearGradient id="SVGID_2_" gradientUnits="userSpaceOnUse" x1="11.976" y1="1793" x2="29.5" y2="1793" gradientTransform="translate(0 -1777)"><stop offset="0" stop-color="#fff"/><stop offset="1" stop-color="#fff"/></linearGradient><path d="M20.7 7.2H12v17.6h8.8c4.4 0 8.8-3.9 8.8-8.8s-4.5-8.8-8.9-8.8zm0 12.8c-2.2 0-4-1.8-4-4s1.8-4 4-4 4 1.8 4 4-1.8 4-4 4z" fill="url(#SVGID_2_)"/></svg>
