<?xml version="1.0" encoding="utf-8"?>
<!-- Generated by IcoMoon.io -->
<!DOCTYPE svg PUBLIC "-//W3C//DTD SVG 1.1//EN" "http://www.w3.org/Graphics/SVG/1.1/DTD/svg11.dtd">
<svg version="1.1" xmlns="http://www.w3.org/2000/svg" xmlns:xlink="http://www.w3.org/1999/xlink" width="512" height="512" viewBox="0 0 512 512">
<path fill="#888" d="M203 299c53 0 96-43 96-96s-43-96-96-96-96 43-96 96 43 96 96 96zM331 299l106 106-32 32-106-106v-17l-6-6c-24 21-56 33-90 33-77 0-139-61-139-138s62-139 139-139 138 62 138 139c0 34-12 66-33 90l6 6h17z"></path>
</svg>
