<svg viewBox="0 0 448 435" xmlns="http://www.w3.org/2000/svg">
    <g fill-rule="nonzero">
        <path d="M403 19c13.255 0 24 10.745 24 24v75c0 13.255-10.745 24-24 24H46c-13.255 0-24-10.745-24-24V43c0-13.255 10.745-24 24-24h357zm0 20H46a4 4 0 00-3.995 3.8L42 43v75a4 4 0 003.8 3.995l.2.005h357a4 4 0 003.995-3.8l.005-.2V43a4 4 0 00-3.8-3.995L403 39zM403 331c13.255 0 24 10.745 24 24v37c0 13.255-10.745 24-24 24H46c-13.255 0-24-10.745-24-24v-37c0-13.255 10.745-24 24-24h357zm0 20H46a4 4 0 00-3.995 3.8L42 355v37a4 4 0 003.8 3.995l.2.005h357a4 4 0 003.995-3.8l.005-.2v-37a4 4 0 00-3.8-3.995L403 351zM403 160c13.255 0 24 10.745 24 24v105c0 13.255-10.745 24-24 24H46c-13.255 0-24-10.745-24-24V184c0-13.255 10.745-24 24-24h357zm0 20H46a4 4 0 00-3.995 3.8L42 184v105a4 4 0 003.8 3.995l.2.005h357a4 4 0 003.995-3.8l.005-.2V184a4 4 0 00-3.8-3.995L403 180z"/>
    </g>
</svg>
