<svg viewBox="0 0 448 435" xmlns="http://www.w3.org/2000/svg">
    <path d="M105.849 306c10.767 0 16.151-7.95 16.151-23.852V146.275c0-5.696-1.258-10.166-3.773-13.41-2.515-3.243-5.855-4.865-10.02-4.865-3.694 0-6.21.712-7.545 2.136-1.337 1.424-4.205 5.221-8.607 11.392a96.939 96.939 0 01-15.149 16.732c-5.698 4.984-13.302 9.73-22.812 14.24-6.366 3.006-10.806 5.459-13.321 7.357-2.515 1.899-3.773 4.866-3.773 8.9 0 3.481 1.277 6.547 3.831 9.197 2.555 2.65 5.482 3.975 8.783 3.975 6.917 0 20.356-7.713 40.32-23.14v107.987c0 6.329 1.453 11.115 4.361 14.359 2.908 3.243 6.76 4.865 11.554 4.865zm151.574-3c5.232 0 9.136-1.345 11.712-4.034 2.577-2.69 3.865-5.972 3.865-9.847 0-4.35-1.625-7.791-4.875-10.322-3.25-2.531-7.967-3.797-14.15-3.797h-62.07c1.981-3.006 3.923-5.576 5.826-7.712 4.44-5.378 12.624-12.932 24.555-22.66 11.93-9.73 20.432-16.868 25.505-21.416 5.074-4.548 10.048-10.836 14.923-18.865 4.876-8.028 7.313-16.946 7.313-26.754 0-6.248-1.169-12.28-3.508-18.093-2.338-5.814-5.608-10.935-9.81-15.364a46.673 46.673 0 00-14.625-10.441c-8.562-3.797-18.907-5.695-31.035-5.695-10.068 0-18.847 1.483-26.338 4.45-7.492 2.965-13.675 6.86-18.55 11.686-4.875 4.824-8.542 10.203-11 16.135-2.457 5.932-3.685 11.627-3.685 17.085 0 4.508 1.308 8.068 3.924 10.678 2.616 2.61 5.905 3.915 9.869 3.915 4.519 0 7.947-1.424 10.286-4.271 2.338-2.847 4.439-6.92 6.302-12.22 1.863-5.3 3.19-8.543 3.983-9.73 5.946-9.095 14.11-13.643 24.495-13.643 4.915 0 9.453 1.107 13.615 3.322 4.162 2.214 7.452 5.319 9.87 9.313 2.417 3.995 3.626 8.523 3.626 13.585 0 4.667-1.13 9.432-3.388 14.297-2.26 4.864-5.55 9.61-9.87 14.237-4.32 4.627-9.73 9.234-16.23 13.822-3.647 2.452-9.712 7.573-18.194 15.364s-17.995 17.144-28.538 28.06c-2.537 2.689-4.875 6.387-7.015 11.093-2.14 4.706-3.211 8.483-3.211 11.33 0 4.43 1.665 8.286 4.994 11.568 3.33 3.283 7.967 4.924 13.912 4.924h87.517zm91.186 3c9.296 0 17.784-1.485 25.465-4.456 7.68-2.97 14.317-7.09 19.91-12.358 5.593-5.268 9.828-11.268 12.703-18.002 2.875-6.733 4.313-13.704 4.313-20.913 0-6.02-1.063-11.625-3.19-16.814-2.127-5.188-5.298-9.922-9.513-14.2-4.214-4.277-9.394-8.08-15.538-11.407 6.38-5.386 11.284-10.912 14.711-16.576 3.427-5.664 5.14-12.456 5.14-20.378 0-6.02-1.181-11.645-3.545-16.873-2.363-5.229-5.868-9.823-10.516-13.784-4.648-3.96-10.123-6.99-16.425-9.09-6.302-2.1-13.274-3.149-20.915-3.149-8.744 0-16.661 1.248-23.751 3.743s-13.018 5.803-17.784 9.922c-4.766 4.12-8.39 8.456-10.87 13.011-2.482 4.555-3.723 8.892-3.723 13.012 0 4.277 1.32 7.703 3.959 10.278 2.639 2.574 5.534 3.862 8.685 3.862 2.678 0 5.041-.476 7.09-1.426 2.048-.95 3.466-2.258 4.253-3.921 1.34-3.09 2.817-6.377 4.432-9.863 1.614-3.485 3.328-6.337 5.14-8.555 1.811-2.218 4.273-4 7.385-5.347 3.112-1.347 7.07-2.02 11.875-2.02 7.09 0 12.723 2.198 16.898 6.594 4.175 4.397 6.263 9.645 6.263 15.745 0 8-2.62 14.14-7.858 18.418-5.239 4.277-11.482 6.416-18.73 6.416h-4.844c-5.593 0-9.808 1.169-12.644 3.505-2.836 2.337-4.254 5.407-4.254 9.21 0 3.881 1.182 6.911 3.545 9.09 2.364 2.178 5.712 3.267 10.044 3.267.946 0 3.073-.158 6.381-.475 3.309-.317 5.75-.475 7.326-.475 8.98 0 15.992 2.634 21.034 7.902 5.041 5.267 7.562 12.536 7.562 21.804 0 6.258-1.477 11.764-4.431 16.517-2.954 4.753-6.696 8.337-11.226 10.753-4.53 2.416-9.236 3.624-14.12 3.624-8.508 0-15.106-2.673-19.793-8.02-4.687-5.347-9.079-13.526-13.175-24.538-.63-1.822-1.97-3.386-4.018-4.693-2.048-1.307-4.175-1.96-6.38-1.96-4.412 0-8.095 1.405-11.049 4.217-2.954 2.813-4.431 6.516-4.431 11.11 0 3.565 1.24 8.08 3.722 13.547 2.482 5.466 6.145 10.753 10.99 15.863 4.844 5.11 11.008 9.367 18.492 12.774 7.484 3.406 15.952 5.109 25.405 5.109z" fill-rule="nonzero"/>
</svg>
