<svg viewBox="0 0 448 435" xmlns="http://www.w3.org/2000/svg">
    <path d="M56 399.736c29.823 0 54 7.222 54 16.132S85.823 432 56 432s-54-7.223-54-16.132c0-8.91 24.177-16.132 54-16.132zM370.467 66.84c19.712 19.591 19.909 51.224.59 71.05l-.59.597-13.763 13.676c7.393 7.34 7.393 19.25 0 26.591a18.93 18.93 0 01-13.38 5.508c-4.695 0-9.39-1.727-13.042-5.18l-.339-.328-3.71-3.685-198.329 197.06a30.546 30.546 0 01-19.64 8.788l-.505.027-6.848.3-15.081.666h-.013L61.065 383c-.124.006-.234.006-.345.006-2.046 0-4.017-.8-5.459-2.24A7.698 7.698 0 0153 375.294l.006-.293 2.082-46.387v-.037l.124-2.736a23.006 23.006 0 016.45-14.95l.33-.334 51.608-51.284h.013l148.676-147.74-4.459-4.433c-7.394-7.34-7.394-19.251 0-26.59 7.304-7.257 19.08-7.345 26.491-.263l.27.262 13.763-13.675c19.922-19.783 52.204-19.777 72.113.007zM229.49 175.823l-126.1 129.266h-.007l-23.662 23.588a10.599 10.599 0 00-3.109 7.03l-.056 1.258v.018l-.955 21.335c-.04.99.333 1.95 1.034 2.652a3.538 3.538 0 002.503 1.03c.05 0 .101 0 .158-.003l11.349-.5 6.92-.307 3.14-.138a13.986 13.986 0 009.237-4.055L262.555 208.78c9.13-9.099 9.13-23.852 0-32.954-9.129-9.1-23.93-9.102-33.065-.003z" fill-rule="nonzero"/>
</svg>
