<svg viewBox="0 0 448 435" xmlns="http://www.w3.org/2000/svg">
    <g fill-rule="evenodd">
        <g transform="translate(55 20)">
            <path d="M314 24c13.255 0 24 10.745 24 24v305c0 13.255-10.745 24-24 24H24c-13.255 0-24-10.745-24-24V48c0-13.255 10.745-24 24-24h290zm0 20H24a4 4 0 00-3.995 3.8L20 48v305a4 4 0 003.8 3.995l.2.005h290a4 4 0 003.995-3.8l.005-.2V48a4 4 0 00-3.8-3.995L314 44z" fill-rule="nonzero"/>
            <rect x="94" y=".873" width="17.341" height="61.127" rx="6"/>
            <rect x="226.659" width="17.341" height="61.127" rx="6"/>
            <rect x="9" y="93" width="319" height="19" rx="6"/>
        </g>
        <path d="M173.052 323.454c7.72 0 14.771-1.227 21.15-3.68 6.38-2.454 11.892-5.857 16.538-10.208 4.645-4.35 8.162-9.307 10.55-14.869 2.388-5.561 3.583-11.32 3.583-17.273 0-4.973-.884-9.602-2.65-13.888-1.767-4.285-4.4-8.195-7.901-11.728-3.5-3.533-7.802-6.674-12.906-9.422 5.3-4.449 9.373-9.013 12.219-13.69 2.846-4.68 4.27-10.29 4.27-16.833 0-4.972-.982-9.618-2.945-13.936-1.963-4.319-4.875-8.114-8.735-11.385-3.86-3.271-8.408-5.774-13.642-7.508s-11.025-2.6-17.372-2.6c-7.262 0-13.838 1.03-19.727 3.09-5.888 2.062-10.812 4.793-14.77 8.196-3.959 3.402-6.969 6.984-9.03 10.747-2.06 3.762-3.091 7.344-3.091 10.746 0 3.534 1.096 6.363 3.288 8.49 2.192 2.126 4.596 3.19 7.213 3.19 2.225 0 4.188-.393 5.889-1.178 1.701-.785 2.879-1.865 3.533-3.239a359.578 359.578 0 013.68-8.146c1.342-2.879 2.765-5.234 4.27-7.066 1.505-1.832 3.55-3.305 6.134-4.417 2.584-1.112 5.872-1.668 9.863-1.668 5.89 0 10.567 1.815 14.035 5.447 3.468 3.631 5.202 7.966 5.202 13.004 0 6.608-2.176 11.68-6.527 15.212-4.351 3.533-9.536 5.3-15.556 5.3h-4.024c-4.645 0-8.146.965-10.501 2.895-2.356 1.93-3.533 4.466-3.533 7.607 0 3.206.981 5.708 2.944 7.508 1.963 1.799 4.744 2.699 8.342 2.699.785 0 2.552-.131 5.3-.393 2.748-.262 4.776-.393 6.085-.393 7.459 0 13.282 2.176 17.47 6.527 4.187 4.351 6.281 10.354 6.281 18.01 0 5.169-1.227 9.716-3.68 13.642-2.454 3.925-5.562 6.886-9.324 8.882-3.762 1.995-7.672 2.993-11.728 2.993-7.067 0-12.547-2.208-16.44-6.625-3.893-4.416-7.54-11.172-10.943-20.266-.523-1.505-1.636-2.798-3.337-3.877-1.7-1.08-3.467-1.62-5.3-1.62-3.664 0-6.722 1.162-9.176 3.485-2.454 2.322-3.68 5.381-3.68 9.176 0 2.944 1.03 6.674 3.091 11.189 2.061 4.514 5.104 8.882 9.128 13.102 4.023 4.22 9.143 7.737 15.36 10.55 6.215 2.814 13.249 4.22 21.1 4.22zm120.925 0c8.964 0 13.446-6.576 13.446-19.727V191.35c0-4.71-1.047-8.408-3.14-11.09-2.095-2.683-4.875-4.024-8.343-4.024-3.075 0-5.169.589-6.281 1.766-1.113 1.178-3.5 4.319-7.165 9.422a80.362 80.362 0 01-12.611 13.839c-4.744 4.122-11.074 8.048-18.991 11.777-5.3 2.486-8.997 4.515-11.09 6.085-2.094 1.57-3.141 4.024-3.141 7.36 0 2.88 1.063 5.415 3.19 7.607 2.126 2.192 4.563 3.288 7.311 3.288 5.758 0 16.946-6.38 33.566-19.138v89.311c0 5.235 1.21 9.193 3.63 11.876 2.422 2.682 5.628 4.024 9.62 4.024z" fill-rule="nonzero"/>
    </g>
</svg>
