<svg viewBox="0 0 448 435" xmlns="http://www.w3.org/2000/svg">
    <g fill-rule="nonzero">
        <path d="M279 28c13.255 0 24 10.745 24 24v97h98c13.255 0 24 10.745 24 24v211c0 13.255-10.745 24-24 24H168c-13.255 0-24-10.745-24-24v-30.161c6.17 1.3 12.837 2.292 20 2.981V384a4 4 0 003.8 3.995l.2.005h233a4 4 0 003.995-3.8l.005-.2V173a4 4 0 00-3.8-3.995L401 169H168a4 4 0 00-3.995 3.8l-.005.2v156.03c-7.889-.46-14.434-1.093-20-2.154V287h-37.983c-1.073-5.949-1.52-12.569-1.499-19.998L144 267v-94c0-13.255 10.745-24 24-24h115V52a4 4 0 00-3.8-3.995L279 48H46a4 4 0 00-3.995 3.8L42 52v211a4 4 0 003.8 3.995l.2.005 26.984.001c.378 7.041 1.245 13.71 2.607 20L46 287c-13.255 0-24-10.745-24-24V52c0-13.255 10.745-24 24-24h233z"/>
        <path d="M91.84 213.18c2.957.205 4.493 1.888 4.606 5.05-7.59 51.419-.354 86.506 21.098 105.676 16.366 14.625 51.963 18.05 106.51 9.481-1.636-6.615-2.923-12.208-3.863-16.779-.052-.253-.618-1.629.796-2.768.943-.759 2.28-.948 4.01-.566l47.163 12.8c1.96.507 3.086 1.14 3.376 1.896.29.757-.233 1.702-1.567 2.834l-40.131 31.428c-.96.638-1.8.899-2.522.782-.723-.117-1.245-.623-1.569-1.516-.95-4.623-2.176-10.725-3.678-18.305-57.574 9.103-95.875 5.428-115.188-11.83-24.209-21.633-32.199-59.423-24.564-112.966l.237-1.627c.565-2.598 2.327-3.795 5.285-3.59z"/>
    </g>
</svg>
