<svg viewBox="0 0 448 435" xmlns="http://www.w3.org/2000/svg">
    <path d="M85.807 337C97.269 337 103 332.297 103 322.89c0-4.042-.975-7.307-2.924-9.794-1.95-2.488-4.405-3.926-7.368-4.315-3.587-.544-6.121-1.107-7.603-1.69-1.481-.583-2.748-1.827-3.8-3.732-1.054-1.904-1.755-4.683-2.106-8.337s-.526-9.329-.526-17.025c0-10.26-.624-18.676-1.872-25.245-1.247-6.569-3.43-11.971-6.55-16.208-3.118-4.237-7.446-8.065-12.982-11.486 5.848-3.653 10.312-7.735 13.392-12.243 3.08-4.51 5.146-9.97 6.199-16.383 1.052-6.414 1.657-14.634 1.813-24.663.155-10.26.506-17.18 1.052-20.755.546-3.576 1.716-5.986 3.509-7.23 1.793-1.244 4.951-2.177 9.474-2.799 3.04-.388 5.516-1.788 7.427-4.197 1.91-2.41 2.865-5.714 2.865-9.912 0-9.25-5.731-13.876-17.193-13.876-10.994 0-19.786 3.207-26.374 9.62-6.589 6.413-10 14.984-10.234 25.712-.312 17.335-.546 28.277-.702 32.824-.156 4.548-.721 8.746-1.696 12.594-.974 3.848-2.65 6.996-5.03 9.445-2.377 2.448-6.373 5.422-11.987 8.92-4.523 2.876-6.784 7.19-6.784 12.943 0 3.965.78 6.86 2.34 8.687 1.559 1.827 4.19 3.887 7.894 6.18 3.704 2.294 6.706 4.762 9.006 7.405 2.3 2.643 4.035 6.569 5.204 11.777.468 2.1.82 6.725 1.053 13.876.234 7.152.468 16.636.702 28.452.078 6.997 1.637 13.196 4.678 18.599 3.041 5.403 7.35 9.581 12.924 12.535 5.575 2.954 11.91 4.431 19.006 4.431zm139.577-47c4.636 0 8.73-1.541 12.285-4.624 3.554-3.082 5.331-7.394 5.331-12.935 0-4.838-1.72-8.954-5.157-12.349-3.438-3.395-7.591-5.092-12.459-5.092-4.867 0-8.982 1.697-12.343 5.092-3.36 3.395-5.041 7.511-5.041 12.35 0 5.462 1.738 9.754 5.215 12.876 3.477 3.121 7.533 4.682 12.17 4.682zm-80.058 0c4.65 0 8.76-1.541 12.325-4.624 3.566-3.082 5.349-7.394 5.349-12.935 0-4.838-1.725-8.954-5.174-12.349-3.45-3.395-7.617-5.092-12.5-5.092-4.884 0-8.993 1.678-12.326 5.033-3.333 3.356-5 7.492-5 12.408 0 5.541 1.725 9.853 5.174 12.935 3.45 3.083 7.5 4.624 12.152 4.624zm159.058 0c4.713 0 8.827-1.56 12.343-4.682 3.515-3.122 5.273-7.414 5.273-12.877 0-4.838-1.72-8.954-5.157-12.349-3.438-3.395-7.591-5.092-12.459-5.092-4.867 0-8.982 1.697-12.343 5.092-3.36 3.395-5.041 7.511-5.041 12.35 0 5.462 1.758 9.754 5.273 12.876 3.516 3.121 7.553 4.682 12.111 4.682zm59.575 47c11.072 0 19.942-3.246 26.608-9.737 6.667-6.49 10.117-15.1 10.351-25.828.234-11.35.448-20.795.643-28.335.195-7.54.78-13.196 1.755-16.966.974-3.77 2.69-6.919 5.146-9.445 2.456-2.527 6.413-5.461 11.871-8.804 4.445-2.72 6.667-6.996 6.667-12.827 0-4.12-.838-7.19-2.515-9.212-1.676-2.02-4.23-4.061-7.66-6.121-3.431-2.06-6.355-4.431-8.772-7.113-2.418-2.682-4.25-6.589-5.497-11.72-.624-2.565-1.17-16.752-1.638-42.56-.078-6.919-1.696-13.08-4.854-18.482-3.158-5.403-7.485-9.562-12.982-12.477-5.497-2.915-11.871-4.373-19.123-4.373-11.306 0-16.959 4.625-16.959 13.876 0 4.198.994 7.502 2.982 9.912 1.989 2.41 4.425 3.809 7.31 4.197 3.431.39 5.985.914 7.661 1.575 1.677.66 2.983 1.885 3.918 3.673.936 1.788 1.56 4.644 1.872 8.57.312 3.926.468 9.581.468 16.966 0 7.619.35 14.246 1.052 19.882.702 5.636 1.91 10.514 3.626 14.634 1.715 4.12 3.899 7.618 6.55 10.494 2.65 2.877 6.081 5.636 10.292 8.28-5.926 3.73-10.41 7.773-13.45 12.126-3.041 4.354-5.108 9.562-6.2 15.626-1.09 6.063-1.715 14.459-1.87 25.186 0 7.23-.137 12.73-.41 16.5-.273 3.77-.858 6.627-1.754 8.57-.897 1.944-2.203 3.266-3.918 3.965-1.716.7-4.328 1.283-7.837 1.75-1.949.233-3.684.932-5.204 2.098-1.52 1.166-2.749 2.818-3.684 4.956-.936 2.138-1.404 4.49-1.404 7.055 0 4.586 1.462 8.084 4.386 10.494 2.924 2.41 7.115 3.615 12.573 3.615z" fill-rule="nonzero"/>
</svg>
