<svg viewBox="0 0 448 435" xmlns="http://www.w3.org/2000/svg">
    <path d="M253.266 125.382c5.312-1.512 10.843 1.57 12.355 6.881 4.448 15.632 7.865 31.295 10.25 46.987h44.616c5.523 0 10 4.477 10 10 0 5.43-4.327 9.848-9.72 9.996l-.28.004H278.35a360.647 360.647 0 011.653 34.476c0 12.168-.617 24.343-1.848 36.524h42.332c5.523 0 10 4.477 10 10 0 5.43-4.327 9.848-9.72 9.996l-.28.004H275.58c-2.367 15.145-5.685 30.298-9.951 45.459-1.497 5.316-7.02 8.413-12.335 6.917-5.317-1.496-8.414-7.019-6.917-12.335 3.76-13.366 6.743-26.712 8.946-40.04H191.68c2.204 13.328 5.186 26.674 8.947 40.04 1.496 5.316-1.6 10.839-6.917 12.335-5.316 1.496-10.839-1.6-12.335-6.917-4.267-15.16-7.584-30.314-9.952-45.46l-43.909.001c-5.523 0-10-4.477-10-10 0-5.43 4.327-9.848 9.72-9.996l.28-.004h41.335A362.827 362.827 0 01167 233.726c0-11.506.551-22.999 1.653-34.476h-41.14c-5.523 0-10-4.477-10-10 0-5.43 4.327-9.848 9.72-9.996l.28-.004h43.619c2.385-15.692 5.802-31.355 10.25-46.987 1.511-5.312 7.043-8.393 12.355-6.881 5.312 1.511 8.393 7.043 6.881 12.355-3.933 13.823-7.014 27.66-9.243 41.513h64.253c-2.23-13.852-5.31-27.69-9.244-41.513-1.511-5.312 1.57-10.844 6.882-12.355zm4.987 73.868H188.75a340.75 340.75 0 00-1.75 34.476c0 12.162.652 24.336 1.956 36.524h69.09a343.068 343.068 0 001.957-36.524c0-11.504-.584-22.995-1.75-34.476z"/>
    <path d="M225 71c7.693 0 15.262.533 22.672 1.564A85.455 85.455 0 00247 83.406c0 4.299.457 8.814 1.37 13.554A139.495 139.495 0 00225 95c-76.768 0-139 62.232-139 139s62.232 139 139 139 139-62.232 139-139c0-27.187-7.805-52.551-21.297-73.974 5.334-7.686 10.016-15.024 14.039-22.028C376.399 164.925 388 198.108 388 234c0 90.022-72.978 163-163 163S62 324.022 62 234 134.978 71 225 71zm110.522 43.19l-.161.318a176.118 176.118 0 01-2.61 4.934l-.832 1.5-.859 1.517c-.145.254-.292.51-.44.765l-.9 1.546a245.739 245.739 0 01-3.367 5.555l-1.025 1.628-1.052 1.647c-.4.623-.808 1.25-1.22 1.882a139.278 139.278 0 00-40.132-27.875C278.964 98.027 277 89.93 277 83.406c0-1.336.04-2.633.12-3.892 21.929 7.392 41.767 19.324 58.402 34.677z"/>
    <path d="M309.528 43.66C333.73 43.66 350 58.28 350 83.406l-.005.563c-.187 11.637-6.165 27.327-18.03 46.781l-1.078 1.752-1.11 1.773-.567.893-1.157 1.802a315.135 315.135 0 01-3.03 4.593l-1.268 1.872-1.299 1.892a405.2 405.2 0 01-7.71 10.757l-1.504 2.019a482.7 482.7 0 01-2.317 3.065l-1.155 1.508-.718-.997a471.247 471.247 0 01-4.33-6.129l-1.382-2.003a404.202 404.202 0 01-3.969-5.893l-1.262-1.924a339.996 339.996 0 01-4.183-6.578l-1.128-1.835C278.889 114.512 272 96.417 272 83.406c0-25.827 14.246-39.746 37.528-39.746zm10.007 138.996l1.983-2.506C353.708 139.274 370 107.413 370 83.406c0-36.675-25.672-59.746-60.472-59.746C275.303 23.66 252 46.43 252 83.406c0 23.92 15.429 55.872 45.911 96.928l1.353 1.81.231.298.214.266.218.258.241.274c2.02 2.254 4.55 3.68 7.66 4.217 4.137.714 8.076-.487 10.887-3.759l.145-.173.438-.554.237-.315z"/>
</svg>
