<svg viewBox="0 0 448 435" xmlns="http://www.w3.org/2000/svg">
    <path d="M144.941 306c4.706 0 8.726-1.663 12.059-4.99 3.333-3.327 5-6.986 5-10.978 0-3.836-1.765-9.98-5.294-18.434l-45.059-111.074c-2.118-5.558-3.863-10-5.235-13.327a49.79 49.79 0 00-5.06-9.334c-2-2.896-4.627-5.264-7.881-7.104-3.255-1.84-7.314-2.759-12.177-2.759-4.784 0-8.804.92-12.059 2.76-3.255 1.839-5.882 4.246-7.882 7.22-2 2.975-3.882 6.712-5.647 11.213-1.765 4.501-3.275 8.356-4.53 11.566L7.06 272.537c-1.804 4.462-3.098 7.945-3.883 10.45-.784 2.505-1.176 4.931-1.176 7.28 0 4.07 1.686 7.71 5.059 10.919 3.372 3.21 7.255 4.814 11.647 4.814 5.176 0 8.902-1.507 11.176-4.52 2.275-3.014 5.02-8.826 8.236-17.436l8.235-22.074h70.118l8.235 21.604a453.596 453.596 0 003.941 9.217c1.53 3.483 2.96 6.066 4.294 7.75a14.45 14.45 0 004.941 3.991c1.961.979 4.314 1.468 7.06 1.468zM107 236H56l25.267-71L107 236zm147.462 70c8.044 0 15.405-1.624 22.083-4.873 6.678-3.248 12.36-7.847 17.045-13.796 4.686-5.949 8.26-12.974 10.72-21.076 2.46-8.101 3.69-17.005 3.69-26.711 0-13.15-2.206-24.52-6.619-34.11-4.413-9.588-10.622-16.907-18.627-21.956-8.005-5.049-17.319-7.573-27.94-7.573-9.216 0-16.948 1.663-23.196 4.99-6.248 3.327-12.38 8.121-18.393 14.383v-48.961c0-5.871-1.328-10.392-3.983-13.562-2.656-3.17-6.444-4.755-11.364-4.755-4.686 0-8.337 1.663-10.953 4.99-2.617 3.327-3.925 8.239-3.925 14.736v139.957c0 6.028 1.347 10.587 4.042 13.68 2.694 3.091 6.306 4.637 10.836 4.637 4.452 0 8.123-1.546 11.012-4.638 2.89-3.092 4.335-7.651 4.335-13.679v-3.17c3.514 4.07 6.346 7.123 8.493 9.159 2.148 2.035 4.745 4.011 7.79 5.929 3.047 1.918 6.737 3.464 11.072 4.638 4.334 1.174 8.962 1.761 13.882 1.761zm-8.91-25c-9.427 0-17.042-3.441-22.846-10.324-5.804-6.882-8.706-16.734-8.706-29.555 0-8.731 1.363-16.262 4.09-22.594 2.727-6.332 6.466-11.17 11.218-14.513 4.753-3.343 10.167-5.014 16.244-5.014 5.92 0 11.101 1.671 15.542 5.014 4.44 3.343 7.868 8.082 10.283 14.218 2.415 6.135 3.623 13.45 3.623 21.945 0 13.136-2.902 23.223-8.706 30.263-5.804 7.04-12.718 10.56-20.742 10.56zm142.41 25c9.302 0 17.666-1.25 25.091-3.748 7.426-2.498 13.582-5.797 18.467-9.896 4.885-4.1 8.52-8.413 10.904-12.942 2.384-4.528 3.576-8.783 3.576-12.765 0-3.358-1.29-6.52-3.87-9.487-2.579-2.967-5.823-4.45-9.73-4.45-3.284 0-6.059 1.015-8.325 3.045-2.267 2.03-4.378 4.84-6.332 8.432-3.517 6.09-7.562 10.619-12.135 13.586-4.573 2.967-10.064 4.45-16.473 4.45-4.768 0-9.146-.917-13.132-2.752-3.987-1.835-7.387-4.529-10.2-8.081-2.815-3.553-4.964-7.847-6.45-12.883-1.484-5.036-2.227-10.56-2.227-16.572 0-12.805 2.892-22.896 8.676-30.275 5.785-7.378 13.406-11.067 22.864-11.067 6.566 0 11.979 1.483 16.239 4.45 4.26 2.967 8.344 7.417 12.252 13.351 2.189 3.045 4.162 5.251 5.921 6.618 1.759 1.366 3.967 2.05 6.625 2.05 4.064 0 7.523-1.328 10.376-3.983 2.853-2.655 4.28-5.895 4.28-9.72 0-3.748-1.27-7.789-3.811-12.122-2.54-4.334-6.214-8.413-11.021-12.239-4.808-3.826-10.67-6.949-17.588-9.37-6.917-2.42-14.519-3.63-22.804-3.63-13.367 0-24.857 2.752-34.471 8.257-9.615 5.504-16.962 13.293-22.043 23.365-5.08 10.072-7.621 21.666-7.621 34.783 0 19.364 5.55 34.804 16.65 46.32C352.748 300.242 368.185 306 387.961 306z" fill-rule="nonzero"/>
</svg>
