<svg viewBox="0 0 448 435" xmlns="http://www.w3.org/2000/svg">
    <g fill-rule="nonzero">
        <path d="M395 33c14.912 0 27 12.088 27 27v323c0 14.912-12.088 27-27 27H62c-14.912 0-27-12.088-27-27V60c0-14.912 12.088-27 27-27h333zm0 24H62a3 3 0 00-2.995 2.824L59 60v323a3 3 0 002.824 2.995L62 386h333a3 3 0 002.995-2.824L398 383V60a3 3 0 00-2.824-2.995L395 57z"/>
        <path d="M166 98c28.719 0 52 23.281 52 52s-23.281 52-52 52-52-23.281-52-52 23.281-52 52-52zm0 20c-17.673 0-32 14.327-32 32 0 17.673 14.327 32 32 32 17.673 0 32-14.327 32-32 0-17.673-14.327-32-32-32zM284.847 214.005c3.277-.098 6.57 1.217 8.875 3.872.367.423.696.865.989 1.323l76.24 62.815c4.772 3.931 5.419 10.945 1.445 15.665-3.904 4.64-10.818 5.337-15.584 1.629l-.249-.2-71.65-59.031-59.801 50.946 9.771 7.722c4.86 3.84 5.652 10.85 1.768 15.657-3.816 4.723-10.727 5.56-15.578 1.943l-.253-.195-48.656-38.45-71.42 64.408-.24.21c-4.583 3.907-11.499 3.507-15.59-.958a11.053 11.053 0 01.754-15.702l78.44-70.736.239-.21a11.218 11.218 0 017.39-2.68c2.396-.02 4.814.713 6.863 2.242l.254.195 28.359 22.41 67.481-57.49c.292-.48.624-.942.996-1.385 2.322-2.758 5.708-4.123 9.073-3.997z"/>
    </g>
</svg>
