<svg viewBox="0 0 448 435" xmlns="http://www.w3.org/2000/svg">
    <g fill-rule="nonzero">
        <path d="M210 76.311c0 4.14.362 8.431 1.082 12.881C135.661 96.184 76.62 159.467 76.62 236.5c0 81.713 66.432 147.954 148.38 147.954S373.38 318.213 373.38 236.5c0-36.918-13.56-70.677-35.985-96.597 4.996-8.504 9.135-16.595 12.407-24.299C380.251 146.85 399 189.492 399 236.5c0 95.821-77.902 173.5-174 173.5S51 332.321 51 236.5c0-91.06 70.353-165.736 159.817-172.932A97.301 97.301 0 00210 76.311zm116.93 101.912c5.896 0 10.676 4.766 10.676 10.644 0 5.78-4.62 10.483-10.377 10.64l-.298.005h-44.98a382.785 382.785 0 011.763 36.697 385.1 385.1 0 01-1.972 38.877h45.189c5.895 0 10.675 4.765 10.675 10.643 0 5.78-4.62 10.483-10.377 10.64l-.298.004h-47.937c-2.528 16.12-6.069 32.25-10.624 48.388-1.597 5.659-7.492 8.955-13.167 7.362-5.675-1.592-8.981-7.47-7.384-13.13 4.015-14.226 7.199-28.432 9.55-42.62h-67.938c2.352 14.188 5.535 28.394 9.55 42.62 1.597 5.66-1.709 11.538-7.384 13.13-5.675 1.593-11.57-1.703-13.167-7.362-4.555-16.137-8.096-32.267-10.623-48.388h-46.873c-5.895 0-10.674-4.765-10.674-10.644 0-5.779 4.618-10.482 10.376-10.64l.298-.004h44.125a385.1 385.1 0 01-1.973-38.876c0-12.248.588-24.481 1.764-36.698h-43.916c-5.895 0-10.674-4.765-10.674-10.644 0-5.779 4.618-10.482 10.376-10.64l.298-.004h46.563c2.545-16.703 6.193-33.375 10.941-50.014 1.614-5.654 7.519-8.933 13.19-7.324 5.67 1.609 8.958 7.497 7.345 13.15-4.2 14.715-7.488 29.443-9.867 44.188h66.044a603.952 603.952 0 005.997 8.22l1.534 2.054.184.238c.44.565.88 1.1 1.388 1.668 3.888 4.34 8.938 7.189 14.88 8.214 8.267 1.428 16.63-1.122 22.46-7.912l.208-.245.362-.44.33-.421.322-.43-.08.1a614.505 614.505 0 008.595-11.046h15.6zm-66.433 21.288h-74.193a361.668 361.668 0 00-1.868 36.698c0 12.945.695 25.903 2.087 38.876h73.754a364.13 364.13 0 002.088-38.876c0-12.246-.623-24.478-1.868-36.698zm52.262-112.86l-.12.443c-.72 2.624-1.674 5.436-2.864 8.43l-.475 1.173-.498 1.19c-.17.4-.344.804-.522 1.21l-.546 1.228-.282.62-.582 1.255-.606 1.273c-.412.854-.84 1.72-1.284 2.6l-.678 1.325-.347.67-.714 1.353-.542 1.009a147.694 147.694 0 00-44.984-18.276l-.15-.444a76.487 76.487 0 01-1.255-4.306l-.258-1.03c-.903-3.74-1.352-7.1-1.352-10.063 0-3.932.347-7.466 1.032-10.612a173.136 173.136 0 0157.027 20.953z"/>
        <path d="M283.933 33C309.688 33 327 48.479 327 75.078l-.005.596c-.2 12.32-6.56 28.931-19.186 49.527l-1.147 1.855-1.181 1.876-.603.946-1.232 1.908a333.484 333.484 0 01-3.224 4.862l-1.35 1.982-1.381 2.003c-2.565 3.691-5.3 7.487-8.205 11.388l-1.6 2.138a511.296 511.296 0 01-2.466 3.245L284.191 159l-.764-1.056a498.91 498.91 0 01-4.607-6.488l-1.472-2.121a427.796 427.796 0 01-4.222-6.238l-1.344-2.037a359.709 359.709 0 01-4.45-6.965l-1.2-1.942C251.33 108.01 244 88.852 244 75.078 244 47.736 259.16 33 283.933 33zm10.18 146.695l2.118-2.659C330.604 133.666 348 99.862 348 74.39 348 35.478 320.588 11 283.428 11 246.883 11 222 35.157 222 74.39c0 25.38 16.475 59.281 49.024 102.84l1.444 1.922.247.316.229.283.232.273.258.29c2.157 2.392 4.857 3.906 8.178 4.475 4.418.758 8.625-.516 11.626-3.988l.155-.184.468-.588.252-.334z"/>
    </g>
</svg>
