<svg viewBox="0 0 448 435" xmlns="http://www.w3.org/2000/svg">
    <path d="M108.53 306c5.09 0 9.279-1.761 12.567-5.284 3.289-3.522 4.933-8.845 4.933-15.968V230.15l43.104-66.104c3.602-5.4 6.147-9.628 7.634-12.68 1.488-3.053 2.232-6.106 2.232-9.159 0-3.757-1.468-7.064-4.404-9.921-2.937-2.857-6.597-4.286-10.982-4.286-2.819 0-5.207.509-7.164 1.526-1.958 1.018-3.74 2.486-5.344 4.403a50.12 50.12 0 00-4.405 6.165 5110.64 5110.64 0 01-4.933 8.101l-32.533 52.25-32.181-52.25c-4.933-8.062-8.633-13.444-11.1-16.144-2.466-2.7-6.087-4.051-10.863-4.051-4.542 0-8.359 1.448-11.452 4.344-3.093 2.897-4.639 6.34-4.639 10.333 0 2.426.763 5.283 2.29 8.571 1.527 3.288 4.13 7.867 7.81 13.737l42.048 65.165v54.598c0 7.201 1.605 12.544 4.815 16.027 3.21 3.483 7.4 5.225 12.567 5.225zm87.39 0c3.194 0 5.628-.724 7.303-2.172 1.675-1.448 2.922-3.464 3.74-6.047.818-2.583 1.772-6.106 2.863-10.567l32.72-135.379c1.636-6.419 2.454-10.841 2.454-13.268 0-3.287-1.032-5.87-3.097-7.75-2.064-1.878-5.044-2.817-8.94-2.817-4.518 0-7.556 1.33-9.114 3.992-1.558 2.661-3.194 7.593-4.908 14.794l-32.604 135.379c-1.558 7.201-2.337 11.702-2.337 13.503 0 6.888 3.973 10.332 11.92 10.332zm194.302 0c12.519 0 18.778-7.554 18.778-22.661V147.96c0-6.653-1.447-11.643-4.342-14.97-2.895-3.327-6.846-4.99-11.854-4.99-4.85 0-8.704 1.663-11.56 4.99-2.855 3.327-4.283 8.317-4.283 14.97v102.386L309.949 148.9a1268.433 1268.433 0 00-5.458-8.572c-1.76-2.74-3.481-4.97-5.163-6.692a19.362 19.362 0 00-5.868-4.11c-2.23-1.017-4.91-1.526-8.04-1.526-3.99 0-7.706 1.115-11.149 3.346-3.442 2.231-5.907 5.108-7.393 8.63-1.252 3.21-1.878 7.632-1.878 13.268V286.04c0 6.496 1.487 11.447 4.46 14.852 2.973 3.405 6.924 5.108 11.853 5.108 4.773 0 8.685-1.683 11.736-5.049 3.051-3.366 4.577-8.336 4.577-14.911V185.18l65.37 100.273c1.877 2.74 3.755 5.42 5.632 8.042 1.878 2.623 3.912 4.912 6.103 6.87 2.19 1.956 4.538 3.385 7.042 4.285 2.503.9 5.32 1.35 8.45 1.35z" fill-rule="nonzero"/>
</svg>
