<svg viewBox="0 0 448 435" xmlns="http://www.w3.org/2000/svg">
    <g fill-rule="nonzero">
        <path d="M195.952 310.85c4.748-4.918 8.038-9.957 9.87-15.12 1.83-5.162 2.202-10.067 1.116-14.712-1.087-4.646-3.44-8.716-7.057-12.21-3.02-2.916-6.089-4.842-9.206-5.78a19.827 19.827 0 00-9.491-.501c-3.21.602-6.61 1.808-10.198 3.619-3.59 1.81-7.405 4.02-11.447 6.627-3.277 2.033-5.657 3.462-7.139 4.289a25.19 25.19 0 01-4.814 2.045c-1.728.537-3.342.711-4.842.523-1.5-.189-2.849-.861-4.046-2.017-1.931-1.866-2.659-4.42-2.183-7.661.476-3.242 2.222-6.425 5.24-9.55 3.252-3.369 6.246-5.203 8.98-5.503 2.735-.3 5.756.097 9.063 1.191 2.391.682 4.281.997 5.67.947 1.39-.05 2.753-.768 4.09-2.153 1.47-1.522 2.118-3.35 1.946-5.485-.172-2.136-.98-3.9-2.421-5.292-1.578-1.523-3.59-2.68-6.037-3.467-2.446-.787-5.277-1.027-8.493-.719-3.215.308-6.57 1.36-10.066 3.156-3.495 1.796-7.014 4.528-10.556 8.195-4.434 4.592-7.604 9.249-9.51 13.972-1.905 4.722-2.445 9.215-1.62 13.478.826 4.262 2.885 7.983 6.177 11.162 3.455 3.336 7.165 5.278 11.13 5.827 3.967.548 8.02.025 12.16-1.568 4.141-1.593 8.788-4.05 13.94-7.37 3.83-2.497 6.996-4.387 9.499-5.672 2.503-1.285 4.956-1.934 7.362-1.948 2.405-.013 4.6.939 6.587 2.856 2.502 2.417 3.508 5.554 3.017 9.411-.492 3.857-2.469 7.58-5.932 11.165-2.519 2.608-4.967 4.313-7.345 5.115-2.377.802-4.632 1.027-6.763.675-2.131-.352-4.516-1.067-7.155-2.145-2.209-.925-4.147-1.34-5.816-1.246-1.669.095-3.12.781-4.353 2.058-1.522 1.576-2.25 3.379-2.187 5.409.063 2.03.83 3.755 2.299 5.173 2.53 2.443 5.954 4.11 10.274 5 4.32.89 8.593.75 12.822-.416 5.93-1.677 11.741-5.463 17.435-11.358zm67.583-72.796c1.836-1.901 2.778-3.76 2.827-5.576.048-1.817-.633-3.407-2.045-4.77-1.466-1.416-3.106-2.068-4.92-1.956-1.813.112-3.638 1.119-5.474 3.02l-27.226 28.193-16.983-16.4 24.236-25.097c1.81-1.874 2.72-3.672 2.73-5.394.01-1.722-.663-3.239-2.02-4.55-1.358-1.31-2.89-1.911-4.597-1.801-1.707.11-3.452 1.089-5.236 2.936l-24.235 25.096-14.662-14.158 26.32-27.256c1.863-1.929 2.82-3.774 2.869-5.537.05-1.763-.632-3.326-2.044-4.69-1.384-1.337-2.957-1.95-4.717-1.839-1.76.111-3.571 1.131-5.433 3.06l-30.846 31.94c-1.652 1.712-2.758 3.36-3.318 4.945-.56 1.585-.54 3.167.062 4.744.6 1.578 1.77 3.206 3.508 4.884l44.88 43.341c2.607 2.517 5.052 3.762 7.334 3.736 2.282-.027 4.695-1.358 7.24-3.993l31.75-32.878zm39.936-38.224c4.52-4.68 7.795-9.542 9.826-14.585 2.031-5.043 2.861-10.15 2.49-15.317-.372-5.169-1.848-10.2-4.428-15.097-2.58-4.896-6.182-9.577-10.807-14.043-6.257-6.042-12.801-10.167-19.634-12.374-6.833-2.207-13.643-2.314-20.43-.322-6.788 1.993-13.16 6.073-19.115 12.24-4.389 4.545-7.593 9.292-9.613 14.242-2.02 4.95-2.885 9.97-2.595 15.06.29 5.089 1.72 10.141 4.289 15.158 2.569 5.016 6.152 9.744 10.75 14.184 4.488 4.334 9.272 7.738 14.35 10.21 5.077 2.473 10.178 3.806 15.303 3.997 5.125.192 10.218-.822 15.28-3.043 5.063-2.22 9.841-5.658 14.334-10.31zm-9.79-8.797c-2.322 2.405-4.903 4.183-7.741 5.332-2.839 1.15-5.91 1.632-9.213 1.445-3.303-.186-6.734-1.175-10.293-2.967-3.56-1.792-7.033-4.324-10.42-7.596-3.361-3.245-5.979-6.595-7.853-10.05-1.875-3.456-2.968-6.758-3.28-9.905-.312-3.148.063-6.18 1.125-9.098 1.063-2.917 2.755-5.578 5.078-7.984 3.262-3.378 6.973-5.58 11.13-6.604 4.159-1.024 8.516-.695 13.07.988 4.556 1.683 9.015 4.63 13.378 8.844 4.716 4.554 7.949 9.152 9.7 13.793 1.75 4.642 2.152 8.999 1.204 13.072-.948 4.072-2.909 7.649-5.884 10.73z"/>
        <path d="M276.626 18.079l129.007 10.82c2.739.386 4.89 1.434 6.452 3.145 1.562 1.711 2.384 3.92 2.468 6.626l10.435 132.183c.091 2.597-.324 5.075-1.245 7.433a17.774 17.774 0 01-4.09 6.22L188.002 413.642c-2.865 2.905-6.233 4.358-10.106 4.358-3.735 0-6.967-1.35-9.696-4.052L25.35 269.535c-1.587-1.59-2.37-3.243-2.349-4.96.027-1.719.857-3.45 2.489-5.197l234.08-235.802c1.581-1.927 3.92-3.389 7.014-4.386 3.094-.997 6.442-1.368 10.043-1.111zM274.483 40L52 264.733 178.537 393 403 170.37l-9.48-120.407-118.245-9.944-.163-.01-.31-.009h-.32z"/>
        <path d="M357.488 59.015c15.74 0 28.5 12.76 28.5 28.5s-12.76 28.5-28.5 28.5-28.5-12.76-28.5-28.5 12.76-28.5 28.5-28.5zm0 15c-7.456 0-13.5 6.044-13.5 13.5s6.044 13.5 13.5 13.5c7.455 0 13.5-6.044 13.5-13.5s-6.045-13.5-13.5-13.5z"/>
    </g>
</svg>
