<svg viewBox="0 0 448 435" xmlns="http://www.w3.org/2000/svg">
    <g fill-rule="evenodd">
        <circle cx="37.5" cy="363.5" r="17.5"/>
        <circle cx="37.5" cy="411.5" r="17.5"/>
        <rect x="83" y="409" width="358" height="8.5" rx="4.25"/>
        <rect x="168" y="75" width="273" height="8.5" rx="4.25"/>
        <rect x="168" y="124" width="273" height="8.5" rx="4.25"/>
        <rect x="83" y="361" width="358" height="8.5" rx="4.25"/>
        <path d="M417 174c13.255 0 24 10.745 24 24v91c0 13.255-10.745 24-24 24H30c-13.255 0-24-10.745-24-24v-91c0-13.255 10.745-24 24-24h387zm0 21H30a3 3 0 00-2.995 2.824L27 198v91a3 3 0 002.824 2.995L30 292h387a3 3 0 002.995-2.824L420 289v-91a3 3 0 00-2.824-2.995L417 195zM121.861 143.222c3.555 0 6.591-1.26 9.11-3.777 2.517-2.518 3.776-5.288 3.776-8.31 0-2.902-1.333-7.553-3.999-13.951L96.712 33.115c-1.6-4.206-2.918-7.568-3.955-10.086a37.709 37.709 0 00-3.821-7.065c-1.51-2.192-3.495-3.984-5.954-5.377C80.523 9.195 77.457 8.5 73.784 8.5c-3.614 0-6.65.696-9.109 2.088-2.458 1.393-4.443 3.214-5.954 5.466-1.51 2.251-2.932 5.08-4.265 8.487-1.333 3.406-2.474 6.324-3.422 8.753L17.71 117.895c-1.363 3.376-2.34 6.013-2.933 7.909-.592 1.896-.888 3.732-.888 5.51 0 3.08 1.273 5.835 3.821 8.264 2.548 2.43 5.48 3.644 8.798 3.644 3.91 0 6.724-1.14 8.442-3.422 1.718-2.28 3.792-6.68 6.22-13.196l6.222-16.708h52.964l6.221 16.352c.83 2.014 1.822 4.34 2.977 6.976 1.155 2.637 2.237 4.592 3.244 5.865a10.92 10.92 0 003.732 3.022c1.481.74 3.259 1.11 5.332 1.11zM93.246 90.079H54.322l19.284-53.765 19.64 53.765z" fill-rule="nonzero"/>
    </g>
</svg>
