<?xml version="1.0" encoding="UTF-8"?>
<svg width="26px" height="26px" viewBox="0 0 26 26" version="1.1" xmlns="http://www.w3.org/2000/svg" xmlns:xlink="http://www.w3.org/1999/xlink">
    <!-- Generator: Sketch 43.1 (39012) - http://www.bohemiancoding.com/sketch -->
    <title>Untitled 2</title>
    <desc>Created with Sketch.</desc>
    <defs></defs>
    <g id="Page-1" stroke="none" stroke-width="1" fill="none" fill-rule="evenodd">
        <g id="circle-up" fill-rule="nonzero" fill="#9E9E9E">
            <path d="M0,13 C0,20.18 5.82,26 13,26 C20.18,26 26,20.18 26,13 C26,5.82 20.18,0 13,0 C5.82,0 0,5.82 0,13 Z M23.563,13 C23.563,18.833 18.834,23.563 13,23.563 C7.166,23.563 2.437,18.834 2.437,13 C2.437,7.166 7.166,2.437 13,2.437 C18.834,2.437 23.563,7.166 23.563,13 L23.563,13 Z" id="Shape"></path>
            <polygon id="Shape" points="17.945 16.993 20.243 14.695 13 7.452 5.757 14.695 8.055 16.993 13 12.048"></polygon>
        </g>
    </g>
</svg>